<svg xmlns="http://www.w3.org/2000/svg" version="1.1" viewBox="126.04 497.78 613.37 163.34">
<path d="M0 0 C16.45352136 -0.6894809 31.85601699 5.13260214 43.98828125 16.1640625 C56.58058089 28.57499157 63.11553197 45.16048845 63.31835938 62.74731445 C63.20475321 79.57838399 60.10930733 92.3969052 51.98828125 107.1640625 C51.65828125 107.8240625 51.32828125 108.4840625 50.98828125 109.1640625 C46.41046531 108.66575162 43.71168878 107.6224601 40.05078125 104.8515625 C36.14119107 101.9770378 32.24906808 99.47970752 27.98828125 97.1640625 C27.98828125 96.5040625 27.98828125 95.8440625 27.98828125 95.1640625 C27.32828125 95.1640625 26.66828125 95.1640625 25.98828125 95.1640625 C25.44255885 90.90742777 26.18422634 88.52950834 28.36328125 84.9765625 C34.60739228 74.46947481 33.69442293 62.66947701 30.921875 51.234375 C29.75926788 47.41090556 28.14414678 44.50937108 25.98828125 41.1640625 C25.98828125 40.5040625 25.98828125 39.8440625 25.98828125 39.1640625 C25.47265625 38.9371875 24.95703125 38.7103125 24.42578125 38.4765625 C22.29896391 37.33135316 20.58577128 36.1223657 18.67578125 34.6640625 C11.74689092 29.7085903 4.25418922 29.48997107 -4.01171875 30.1640625 C-11.05344332 31.40744394 -16.43441039 35.83694744 -21.01171875 41.1640625 C-27.50710521 52.19541956 -28.60588053 64.78664024 -26.48046875 77.2890625 C-24.73288653 83.51957302 -21.98366845 88.23797209 -17.32421875 92.7890625 C-14.09672648 96.10378429 -14.09672648 96.10378429 -14.01171875 99.1640625 C-15.49544587 101.46547491 -16.95627107 103.45233342 -18.69921875 105.5390625 C-19.60082433 106.64952923 -20.50058036 107.76150032 -21.3984375 108.875 C-21.83961914 109.41753418 -22.28080078 109.96006836 -22.73535156 110.51904297 C-23.98963454 112.13559972 -25.11580385 113.79029808 -26.2265625 115.5078125 C-28.01171875 118.1640625 -28.01171875 118.1640625 -29.88671875 119.2890625 C-34.47418031 119.01921182 -37.12659748 116.08471783 -40.15234375 112.9375 C-54.02120085 96.94585865 -59.0002596 78.22088554 -57.796875 57.45703125 C-56.25516145 44.37449058 -51.79482876 32.77739433 -44.01171875 22.1640625 C-43.47804687 21.43445313 -42.944375 20.70484375 -42.39453125 19.953125 C-34.00444196 9.47554938 -19.87049871 2.21335355 -6.63671875 0.5390625 C-4.42561458 0.33906313 -2.212699 0.18045312 0 0 Z " fill="#546DC2" transform="translate(184.01171875,497.8359375)"/>
<path d="M0 0 C0.12263388 1.56448383 0.17779522 3.13432772 0.20532227 4.70336914 C0.22526749 5.70433121 0.24521271 6.70529327 0.26576233 7.73658752 C0.28247482 8.8251152 0.29918732 9.91364288 0.31640625 11.03515625 C0.33718735 12.14354355 0.35796844 13.25193085 0.37937927 14.39390564 C0.44499623 17.95003808 0.50381596 21.50624703 0.5625 25.0625 C0.60567368 27.46680493 0.64928758 29.87110199 0.69335938 32.27539062 C0.80068992 38.18351185 0.90243331 44.09170991 1 50 C2.42217056 48.59145502 3.84235242 47.18090196 5.26171875 45.76953125 C6.05280029 44.98425049 6.84388184 44.19896973 7.65893555 43.38989258 C10.3605252 40.63195524 12.89672121 37.7660839 15.39453125 34.82421875 C15.92433594 34.22222656 16.45414062 33.62023437 17 33 C17.49371094 32.26910156 17.98742187 31.53820312 18.49609375 30.78515625 C22.67035034 27.8091262 27.27364406 28.58580551 32.25 28.75 C33.28125 28.76804687 34.3125 28.78609375 35.375 28.8046875 C37.91761064 28.85177288 40.45833162 28.9175195 43 29 C43.890625 31.5546875 43.890625 31.5546875 44 35 C42.29136072 37.73781069 40.05262023 39.88030732 37.75 42.125 C36.55587127 43.33453684 35.36312067 44.54543609 34.171875 45.7578125 C33.33172852 46.59747559 33.33172852 46.59747559 32.47460938 47.45410156 C30.86408497 49.07815832 30.86408497 49.07815832 29.203125 51.4296875 C28.80609375 51.94789063 28.4090625 52.46609375 28 53 C27.34 53 26.68 53 26 53 C25.84866935 61.77717749 30.08731565 67.46939461 34.89599609 74.40087891 C41 83.24237063 41 83.24237063 41 86 C41.66 86 42.32 86 43 86 C43.70429659 87.38743406 44.38777598 88.78544635 45.0625 90.1875 C45.44535156 90.96480469 45.82820313 91.74210938 46.22265625 92.54296875 C47.14188679 95.44847633 46.68319138 97.0778138 46 100 C42.58584258 100.31342645 39.16974594 100.56823243 35.75 100.8125 C34.78191406 100.90208984 33.81382812 100.99167969 32.81640625 101.08398438 C30.12906256 101.26005172 27.67015915 101.3578036 25 101 C22.4375 98.69921875 22.4375 98.69921875 21 96 C20.4225 95.01 19.845 94.02 19.25 93 C18.9303125 92.42121094 18.610625 91.84242188 18.28125 91.24609375 C16.50973509 88.1405417 14.62895903 85.10368479 12.75 82.0625 C12.38422852 81.47017578 12.01845703 80.87785156 11.64160156 80.26757812 C10.76195731 78.84450181 9.8811052 77.42217222 9 76 C8.21625 76.495 7.4325 76.99 6.625 77.5 C4 79 4 79 2 79 C0.55652737 83.33041788 0.64577809 87.75305638 0.48242188 92.28320312 C0.21464014 97.78535986 0.21464014 97.78535986 -2 100 C-3.84765625 100.25878906 -3.84765625 100.25878906 -6.0625 100.265625 C-7.25746094 100.26949219 -7.25746094 100.26949219 -8.4765625 100.2734375 C-9.30929687 100.26570312 -10.14203125 100.25796875 -11 100.25 C-12.24910156 100.26160156 -12.24910156 100.26160156 -13.5234375 100.2734375 C-14.32007813 100.27085937 -15.11671875 100.26828125 -15.9375 100.265625 C-16.66839844 100.26336914 -17.39929688 100.26111328 -18.15234375 100.25878906 C-20 100 -20 100 -22 98 C-22.23383576 94.94429355 -22.34296304 91.97564578 -22.36645508 88.91625977 C-22.38131958 87.97469025 -22.39618408 87.03312073 -22.41149902 86.0630188 C-22.45781757 82.93919218 -22.48932645 79.8154275 -22.51953125 76.69140625 C-22.54584936 74.52668234 -22.57260358 72.3619637 -22.59977722 70.19725037 C-22.65427676 65.65522751 -22.70104387 61.11320098 -22.74291992 56.57104492 C-22.79762427 50.74187954 -22.87511096 44.91326942 -22.95886707 39.08445835 C-23.01999205 34.6125328 -23.06718487 30.14054128 -23.11032677 25.66840935 C-23.13311035 23.51890451 -23.16070164 21.36944521 -23.19312477 19.22006416 C-23.2366934 16.21768839 -23.26109189 13.21575038 -23.28051758 10.21313477 C-23.29751205 9.32004105 -23.31450653 8.42694733 -23.33201599 7.50679016 C-23.33341583 6.68938354 -23.33481567 5.87197693 -23.33625793 5.02980042 C-23.34380002 4.31985208 -23.35134211 3.60990374 -23.35911274 2.87844181 C-22.88386807 0.39253875 -21.9899158 -0.47645366 -20 -2 C-16.8203125 -2.58203125 -16.8203125 -2.58203125 -13.125 -2.8125 C-11.91070312 -2.90144531 -10.69640625 -2.99039063 -9.4453125 -3.08203125 C-5.88105656 -2.99716801 -2.62784012 -2.62784012 0 0 Z " fill="#101011" transform="translate(456,518)"/>
<path d="M0 0 C2.722015 -0.31742776 5.21189382 -0.44401716 7.9375 -0.43359375 C8.73220703 -0.4388356 9.52691406 -0.44407745 10.34570312 -0.44947815 C12.03367953 -0.45591174 13.7217007 -0.45454409 15.40966797 -0.44604492 C17.96275786 -0.43762285 20.51354279 -0.4661299 23.06640625 -0.49804688 C33.99899603 -0.54554895 44.11464415 0.08314032 52.41928101 8.11936951 C58.12895904 14.91235084 58.5622676 23.21340502 58.390625 31.6953125 C58.38496521 32.76876923 58.37930542 33.84222595 58.37347412 34.94821167 C58.35127411 38.34094875 58.30110797 41.7325879 58.25 45.125 C58.22991387 47.4400888 58.21166682 49.75519433 58.1953125 52.0703125 C58.15146331 57.71390952 58.08471745 63.35687629 58 69 C55.16219023 70.60078643 53.10113075 71.25546487 49.84912109 71.29052734 C49.04082855 71.30328705 48.23253601 71.31604675 47.39974976 71.32919312 C46.09972519 71.33253159 46.09972519 71.33253159 44.7734375 71.3359375 C43.41915146 71.3459227 43.41915146 71.3459227 42.0375061 71.35610962 C40.12609896 71.36622834 38.21465655 71.37092688 36.30322266 71.37060547 C33.40596642 71.37495353 30.51026553 71.41121095 27.61328125 71.44921875 C8.33086626 71.56976839 8.33086626 71.56976839 2 67 C-3.46494879 60.53886106 -4.52974232 54.25854699 -4 46 C-3.26330973 40.77789178 -1.94699483 36.64337985 2 33 C4.92526992 31.45654207 7.92519272 30.21092796 11 29 C11.66 28.67 12.32 28.34 13 28 C14.7404417 27.91550372 16.48409722 27.89276976 18.2265625 27.90234375 C19.2578125 27.90556641 20.2890625 27.90878906 21.3515625 27.91210938 C22.97191406 27.92467773 22.97191406 27.92467773 24.625 27.9375 C26.25695312 27.94426758 26.25695312 27.94426758 27.921875 27.95117188 C30.61463789 27.96298224 33.30729188 27.97945222 36 28 C33.96197865 23.93975679 33.96197865 23.93975679 30 22 C27.74065744 21.86024314 25.47781667 21.77455624 23.21484375 21.71875 C22.55795059 21.70034058 21.90105743 21.68193115 21.22425842 21.66296387 C18.41749066 21.58441031 15.61048979 21.51647635 12.8034668 21.44775391 C10.75297176 21.39603484 8.70268222 21.33879452 6.65234375 21.28125 C5.42507568 21.25095703 4.19780762 21.22066406 2.93334961 21.18945312 C0 21 0 21 -2 20 C-2.05392397 17.22890693 -2.09363455 14.45886182 -2.125 11.6875 C-2.14175781 10.90181641 -2.15851562 10.11613281 -2.17578125 9.30664062 C-2.18544922 8.1706543 -2.18544922 8.1706543 -2.1953125 7.01171875 C-2.20578613 6.31522217 -2.21625977 5.61872559 -2.22705078 4.90112305 C-2 3 -2 3 0 0 Z M19 45 C16.69328085 47.71549154 16.69328085 47.71549154 17.375 50.1875 C17.58125 50.785625 17.7875 51.38375 18 52 C23.45954909 53.8198497 29.49017726 53.37745568 35 52 C34.67 49.69 34.34 47.38 34 45 C31.54101345 44.91923037 29.08466258 44.85962857 26.625 44.8125 C25.92632813 44.78736328 25.22765625 44.76222656 24.5078125 44.73632812 C22.23252323 44.67021439 22.23252323 44.67021439 19 45 Z " fill="#1C1C1C" transform="translate(570,547)"/>
<path d="M0 0 C2.04711914 -0.35644531 2.04711914 -0.35644531 4.53515625 -0.328125 C5.87223633 -0.32039062 5.87223633 -0.32039062 7.23632812 -0.3125 C8.16896484 -0.291875 9.10160156 -0.27125 10.0625 -0.25 C11.46725586 -0.24226562 11.46725586 -0.24226562 12.90039062 -0.234375 C19.84609661 -0.15390339 19.84609661 -0.15390339 21 1 C21.1224331 2.50316769 21.17776285 4.01188167 21.20532227 5.51977539 C21.22526749 6.48069595 21.24521271 7.44161652 21.26576233 8.43165588 C21.28247482 9.476436 21.29918732 10.52121613 21.31640625 11.59765625 C21.33718735 12.66165146 21.35796844 13.72564667 21.37937927 14.82188416 C21.44499254 18.2353544 21.50381423 21.64890429 21.5625 25.0625 C21.60567403 27.37045109 21.64928794 29.678394 21.69335938 31.98632812 C21.80068584 37.65746682 21.90242992 43.32868552 22 49 C22.99 49 23.98 49 25 49 C25.33 49.66 25.66 50.32 26 51 C31.86253712 51.36196378 31.86253712 51.36196378 37 49 C40.61859078 44.43026551 40.44065729 40.220401 40.44140625 34.6484375 C40.45461411 33.75258942 40.46782196 32.85674133 40.48143005 31.93374634 C40.52222819 29.08079878 40.54397603 26.22817283 40.5625 23.375 C40.58628708 20.51478332 40.61438171 17.65486948 40.65428162 14.79483032 C40.67863843 13.01757368 40.69349716 11.24015614 40.69789124 9.46273804 C40.70807785 8.65825226 40.71826447 7.85376648 40.72875977 7.02490234 C40.73303482 6.31828461 40.73730988 5.61166687 40.74171448 4.88363647 C41 3 41 3 43 0 C44.93945312 -0.38818359 44.93945312 -0.38818359 47.28125 -0.3984375 C48.54388672 -0.40423828 48.54388672 -0.40423828 49.83203125 -0.41015625 C50.71246094 -0.39855469 51.59289062 -0.38695312 52.5 -0.375 C53.38042969 -0.38660156 54.26085937 -0.39820313 55.16796875 -0.41015625 C56.00972656 -0.40628906 56.85148437 -0.40242187 57.71875 -0.3984375 C58.49154297 -0.39505371 59.26433594 -0.39166992 60.06054688 -0.38818359 C62 0 62 0 64 3 C64.25396729 5.85292053 64.25396729 5.85292053 64.25878906 9.36743164 C64.26509338 10.68211929 64.27139771 11.99680695 64.27789307 13.35133362 C64.27431366 14.78760919 64.27021179 16.22388354 64.265625 17.66015625 C64.26697208 19.13081425 64.26891297 20.60147182 64.27142334 22.0721283 C64.27437168 25.15302778 64.27008571 28.23381126 64.26074219 31.31469727 C64.24933771 35.26828505 64.2559151 39.22160161 64.26788712 43.17517948 C64.27510503 46.21115676 64.2728183 49.24706944 64.26763153 52.28304863 C64.26629536 53.74113433 64.26794163 55.19922586 64.27259064 56.65730476 C64.27765555 58.6921897 64.26857032 60.72709516 64.25878906 62.76196289 C64.25719788 63.92095596 64.25560669 65.07994904 64.25396729 66.27406311 C64 69 64 69 62 71 C59.16197848 71.2526603 56.46384221 71.37028432 53.625 71.375 C52.85671875 71.39949219 52.0884375 71.42398438 51.296875 71.44921875 C45.60078974 71.47878321 45.60078974 71.47878321 42.4609375 68.9765625 C41.97882813 68.32429687 41.49671875 67.67203125 41 67 C40.26136719 67.3609375 39.52273438 67.721875 38.76171875 68.09375 C30.37104374 71.93192408 23.59554843 73.88906757 14.64453125 70.8671875 C11.71211456 69.66396846 8.84728334 68.39134265 6 67 C6 66.34 6 65.68 6 65 C5.34 65 4.68 65 4 65 C-2.07234737 57.40956578 -2.30358246 49.19286492 -2.265625 39.82421875 C-2.26753845 38.77724319 -2.2694519 37.73026764 -2.27142334 36.65156555 C-2.27277775 34.45219684 -2.26913359 32.25281992 -2.26074219 30.0534668 C-2.24997813 26.68064618 -2.26069051 23.30835166 -2.2734375 19.93554688 C-2.27211683 17.79426966 -2.26955635 15.65299277 -2.265625 13.51171875 C-2.26967346 12.50235764 -2.27372192 11.49299652 -2.27789307 10.45304871 C-2.27158875 9.51810074 -2.26528442 8.58315277 -2.25878906 7.61987305 C-2.25719788 6.79794968 -2.25560669 5.97602631 -2.25396729 5.12919617 C-2 3 -2 3 0 0 Z " fill="#161616" transform="translate(257,547)"/>
<path d="M0 0 C0.67224609 0.00966797 1.34449219 0.01933594 2.03710938 0.02929688 C5.08053764 0.09880914 7.53381019 0.3446034 10.4375 1.3125 C11.9182848 4.2740696 11.79064037 7.14756295 12 10.4375 C12.12568359 12.35949219 12.12568359 12.35949219 12.25390625 14.3203125 C12.31449219 15.30773437 12.37507812 16.29515625 12.4375 17.3125 C13.03288574 17.32708252 13.62827148 17.34166504 14.24169922 17.35668945 C16.93263051 17.43104344 19.62230333 17.52774187 22.3125 17.625 C23.24964844 17.64755859 24.18679688 17.67011719 25.15234375 17.69335938 C26.49619141 17.7465332 26.49619141 17.7465332 27.8671875 17.80078125 C28.69460449 17.82696533 29.52202148 17.85314941 30.37451172 17.88012695 C32.4375 18.3125 32.4375 18.3125 34.4375 21.3125 C34.65835401 24.04592694 34.76207463 26.64371811 34.75 29.375 C34.76611328 30.10783203 34.78222656 30.84066406 34.79882812 31.59570312 C34.80078125 33.72265625 34.80078125 33.72265625 34.4375 37.3125 C31.23343538 39.44854308 30.44149253 39.55458908 26.76953125 39.5078125 C25.87685547 39.50136719 24.98417969 39.49492188 24.06445312 39.48828125 C23.13568359 39.47152344 22.20691406 39.45476563 21.25 39.4375 C20.30962891 39.42847656 19.36925781 39.41945313 18.40039062 39.41015625 C16.07917032 39.38659056 13.75846356 39.35369116 11.4375 39.3125 C11.51837857 43.39664438 11.63122403 47.47929586 11.75 51.5625 C11.77255859 52.72136719 11.79511719 53.88023437 11.81835938 55.07421875 C11.8715332 56.74677734 11.8715332 56.74677734 11.92578125 58.453125 C11.95196533 59.47954102 11.97814941 60.50595703 12.00512695 61.56347656 C12.49683929 64.68977862 13.18739374 66.10346942 15.4375 68.3125 C18.2147838 68.71850123 20.65831909 68.91771935 23.4375 68.9375 C31.07895338 69.07346892 31.07895338 69.07346892 34.4375 71.3125 C34.74221206 73.89060299 34.85607771 76.17649418 34.8125 78.75 C34.82410156 79.43126953 34.83570313 80.11253906 34.84765625 80.81445312 C34.8185021 85.77551717 34.8185021 85.77551717 33.23706055 88.00439453 C29.49792827 90.72237998 24.32136585 89.77934015 19.875 89.75 C18.82763672 89.76998047 17.78027344 89.78996094 16.70117188 89.81054688 C9.70368255 89.80619791 3.53247889 88.95497717 -2.5625 85.3125 C-4.95772924 82.83062009 -6.83790284 80.29558697 -8.5625 77.3125 C-9.10390625 76.44625 -9.10390625 76.44625 -9.65625 75.5625 C-12.63459773 68.1679815 -11.7556998 59.14261207 -11.80078125 51.328125 C-11.80485678 50.66746788 -11.8089323 50.00681076 -11.81313133 49.32613373 C-11.83384927 45.8396589 -11.84822076 42.35322194 -11.85766602 38.86669922 C-11.86879799 35.27311322 -11.90331449 31.68013491 -11.94283772 28.08676529 C-11.96896059 25.31236618 -11.97735311 22.53811449 -11.98094749 19.76360321 C-11.98816995 17.79594606 -12.01460312 15.82838968 -12.04133606 13.86090088 C-12.03841049 12.66575867 -12.03548492 11.47061646 -12.0324707 10.23925781 C-12.03833694 9.18861145 -12.04420319 8.13796509 -12.05024719 7.05548096 C-10.82524139 0.16632271 -6.14821705 -0.17428963 0 0 Z " fill="#121213" transform="translate(704.5625,528.6875)"/>
<path d="M0 0 C1.6360457 0.02010801 3.27211542 0.03835113 4.90820312 0.0546875 C8.87690622 0.09831513 12.84443098 0.1670994 16.8125 0.25 C17.99680188 3.80290564 17.99647858 7.05250456 18 10.75 C18.01224609 11.42675781 18.02449219 12.10351562 18.03710938 12.80078125 C18.04809396 16.51357044 17.92594616 18.07983076 15.8125 21.25 C13.09448242 21.66650391 13.09448242 21.66650391 9.66796875 21.7265625 C7.81655273 21.77296875 7.81655273 21.77296875 5.92773438 21.8203125 C4.63158203 21.83835937 3.33542969 21.85640625 2 21.875 C-0.54825067 21.92614402 -3.09643571 21.98069904 -5.64453125 22.0390625 C-7.3457312 22.06540771 -7.3457312 22.06540771 -9.08129883 22.09228516 C-11.8931454 22.23505438 -14.45060778 22.61282976 -17.1875 23.25 C-18.81644083 31.91596522 -19.29747234 40.89194935 -16.1875 49.25 C-12.75780588 50.27714089 -9.53152657 50.43269314 -5.9609375 50.53125 C-4.1665625 50.58732422 -4.1665625 50.58732422 -2.3359375 50.64453125 C0.18749391 50.71506194 2.71093147 50.7853731 5.234375 50.85546875 C7.02488281 50.91154297 7.02488281 50.91154297 8.8515625 50.96875 C9.94678223 50.99904297 11.04200195 51.02933594 12.17041016 51.06054688 C14.8125 51.25 14.8125 51.25 16.8125 52.25 C16.89321788 55.04224073 16.95285408 57.83216566 17 60.625 C17.02513672 61.4190625 17.05027344 62.213125 17.07617188 63.03125 C17.10254405 65.10586148 16.96736462 67.18100865 16.8125 69.25 C12.02697668 72.44034888 6.54142063 71.58306753 0.94580078 71.56567383 C-1.15256588 71.56255197 -3.24946789 71.58583704 -5.34765625 71.61132812 C-24.01050422 71.70056173 -24.01050422 71.70056173 -31.0625 65.875 C-31.76375 65.00875 -32.465 64.1425 -33.1875 63.25 C-34.05375 62.46625 -34.92 61.6825 -35.8125 60.875 C-42.18806017 53.82832824 -42.36836162 45.47509453 -42.375 36.5 C-42.38724609 35.6440625 -42.39949219 34.788125 -42.41210938 33.90625 C-42.43803594 22.49855979 -39.94028437 14.3315149 -32 5.9375 C-21.59942365 -0.30284581 -11.72753555 -0.2524868 0 0 Z " fill="#1A1A1A" transform="translate(543.1875,546.75)"/>
<path d="M0 0 C2.97349989 0.66903747 4.9138696 1.95573259 7.5 3.5625 C8.27859375 4.02269531 9.0571875 4.48289062 9.859375 4.95703125 C13.8976384 7.35227572 17.87541289 9.78456442 21.75 12.4375 C25.94714299 15.27221961 30.3004829 17.76438723 34.71166992 20.24951172 C42.03640007 24.39653737 49.18476787 28.82751059 56.34765625 33.24609375 C58.38845835 34.49427943 60.44072539 35.72009317 62.5 36.9375 C63.10577881 37.29908203 63.71155762 37.66066406 64.33569336 38.03320312 C65.95115081 38.99612813 67.57111915 39.95147408 69.19140625 40.90625 C71.5 42.5625 71.5 42.5625 72.5 45.5625 C71.3430653 49.35674821 69.45356132 52.25479391 67.125 55.4375 C64.96138574 58.42811557 63.03303874 61.32930825 61.375 64.625 C59.5 67.5625 59.5 67.5625 57.125 68.6875 C51.16865207 68.40386438 46.4663263 64.24010266 41.69140625 60.9921875 C39.04277571 59.26420394 36.36821205 57.88629018 33.5 56.5625 C33.5 55.9025 33.5 55.2425 33.5 54.5625 C32.860625 54.335625 32.22125 54.10875 31.5625 53.875 C27.35962811 52.07376919 23.46846968 49.82776381 19.5 47.5625 C17.79263672 46.58990234 17.79263672 46.58990234 16.05078125 45.59765625 C5.74616866 39.72064649 5.74616866 39.72064649 2.22265625 37.45703125 C-2.20988417 34.92476939 -6.95981015 34.1869106 -11.9375 33.3125 C-12.85982422 33.13976562 -13.78214844 32.96703125 -14.73242188 32.7890625 C-16.98641924 32.36862776 -19.24188432 31.96010735 -21.5 31.5625 C-21.77272827 27.52612164 -21.74228319 26.85323983 -19 23.5625 C-18.45472656 22.97597656 -17.90945312 22.38945313 -17.34765625 21.78515625 C-15.06262247 19.0363524 -13.26157534 16.06197939 -11.4375 13 C-4.12159008 0.92735777 -4.12159008 0.92735777 0 0 Z " fill="#5870C3" transform="translate(187.5,592.4375)"/>
<path d="M0 0 C1.11214874 -0.00642769 1.11214874 -0.00642769 2.24676514 -0.01298523 C3.80317161 -0.01869751 5.35960477 -0.01925182 6.91601562 -0.01489258 C9.30384009 -0.01170947 11.69045135 -0.03530771 14.078125 -0.06054688 C15.59374844 -0.06281781 17.10937521 -0.06352432 18.625 -0.0625 C19.3395636 -0.07170975 20.0541272 -0.08091949 20.79034424 -0.09040833 C22.79394531 -0.0715332 22.79394531 -0.0715332 26.046875 0.30078125 C28.54696443 4.0509154 28.34289496 7.02590031 28.296875 11.36328125 C28.30847656 12.4625293 28.30847656 12.4625293 28.3203125 13.58398438 C28.30024482 19.04741143 28.30024482 19.04741143 26.046875 21.30078125 C23.31298828 21.60375977 23.31298828 21.60375977 19.8671875 21.6796875 C18.00900391 21.73092773 18.00900391 21.73092773 16.11328125 21.78320312 C14.81261719 21.80962891 13.51195312 21.83605469 12.171875 21.86328125 C9.61188676 21.92326103 7.05198102 21.98690481 4.4921875 22.0546875 C3.35281738 22.07861572 2.21344727 22.10254395 1.03955078 22.12719727 C-1.46287362 22.27234523 -3.56686932 22.57673394 -5.953125 23.30078125 C-7.10238856 27.43778459 -7.17396147 31.46946992 -7.203125 35.73828125 C-7.22375 36.48916016 -7.244375 37.24003906 -7.265625 38.01367188 C-7.2977552 42.58017679 -6.97951217 45.63093325 -3.953125 49.30078125 C-0.79840429 50.35235482 1.60703248 50.48680044 4.921875 50.58203125 C6.64664063 50.63810547 6.64664063 50.63810547 8.40625 50.6953125 C9.60765625 50.73011719 10.8090625 50.76492188 12.046875 50.80078125 C14.42199761 50.86958845 16.79701069 50.94232154 19.171875 51.01953125 C20.22632813 51.04982422 21.28078125 51.08011719 22.3671875 51.11132812 C25.046875 51.30078125 25.046875 51.30078125 28.046875 52.30078125 C28.12759288 55.09302198 28.18722908 57.88294691 28.234375 60.67578125 C28.25951172 61.46984375 28.28464844 62.26390625 28.31054688 63.08203125 C28.33691905 65.15664273 28.20173962 67.2317899 28.046875 69.30078125 C23.18397711 72.54271318 17.49924561 71.67265783 11.80786133 71.67138672 C9.64776395 71.67570451 7.48980627 71.71186239 5.33007812 71.75 C-3.05080812 71.81981153 -11.4552807 71.49669499 -18.953125 67.30078125 C-20.08374023 65.22412109 -20.08374023 65.22412109 -20.953125 63.30078125 C-21.943125 62.97078125 -22.933125 62.64078125 -23.953125 62.30078125 C-30.29769426 54.03361525 -30.37209667 46.22329376 -30.453125 36.17578125 C-30.494375 34.92023437 -30.535625 33.6646875 -30.578125 32.37109375 C-30.65160531 23.5167162 -29.15302519 16.60513173 -23.953125 9.30078125 C-16.71386619 2.78572526 -9.7476402 -0.01257536 0 0 Z " fill="#1E1E1E" transform="translate(395.953125,546.69921875)"/>
<path d="M0 0 C6.37199294 -0.07589394 12.74386991 -0.1285335 19.11621094 -0.16479492 C21.28520056 -0.179907 23.4541595 -0.20039735 25.62304688 -0.22631836 C28.73575396 -0.26259534 31.84805805 -0.2797019 34.9609375 -0.29296875 C36.42193375 -0.31619453 36.42193375 -0.31619453 37.91244507 -0.33988953 C38.81322784 -0.34011612 39.71401062 -0.34034271 40.64208984 -0.34057617 C41.43706879 -0.34723801 42.23204773 -0.35389984 43.05111694 -0.36076355 C43.69424835 -0.24171158 44.33737976 -0.12265961 45 0 C47.35686011 3.53529016 47.54266927 6.39388014 47.8125 10.5 C47.87630859 11.17675781 47.94011719 11.85351562 48.00585938 12.55078125 C48.35172245 17.4902905 48.35172245 17.4902905 46.83740234 19.68481445 C44.32692536 21.48177692 42.52824264 21.43046977 39.45703125 21.51171875 C38.48999268 21.54483154 37.5229541 21.57794434 36.52661133 21.61206055 C35.30095459 21.63695557 34.07529785 21.66185059 32.8125 21.6875 C28.914375 21.790625 25.01625 21.89375 21 22 C21 37.51 21 53.02 21 69 C16.49223046 71.25388477 16.49223046 71.25388477 12.9609375 71.265625 C11.84332031 71.26949219 11.84332031 71.26949219 10.703125 71.2734375 C9.93484375 71.26570312 9.1665625 71.25796875 8.375 71.25 C7.21097656 71.26160156 7.21097656 71.26160156 6.0234375 71.2734375 C0.25340266 71.25340266 0.25340266 71.25340266 -2 69 C-2.25396729 66.3187561 -2.25396729 66.3187561 -2.25878906 62.86962891 C-2.26824554 60.93719833 -2.26824554 60.93719833 -2.27789307 58.96572876 C-2.27431264 57.55267196 -2.27021051 56.1396164 -2.265625 54.7265625 C-2.26697196 53.28168675 -2.26891275 51.83681145 -2.27142334 50.39193726 C-2.27437504 47.36053156 -2.27007682 44.32924359 -2.26074219 41.29785156 C-2.24936789 37.41505327 -2.25589382 33.53253207 -2.26788712 29.64974403 C-2.27512193 26.66429567 -2.27281 23.67891273 -2.26763153 20.69346237 C-2.26629846 19.26214948 -2.26793077 17.83083062 -2.27259064 16.39952469 C-2.27767992 14.39607103 -2.26854527 12.39259653 -2.25878906 10.38916016 C-2.25719788 9.24935699 -2.25560669 8.10955383 -2.25396729 6.93521118 C-2.00673282 4.0778142 -1.48660822 2.41870115 0 0 Z " fill="#1A1A1A" transform="translate(640,547)"/>
<path d="M0 0 C0.77279297 -0.00338379 1.54558594 -0.00676758 2.34179688 -0.01025391 C3.60443359 -0.01605469 3.60443359 -0.01605469 4.89257812 -0.02197266 C5.77300781 -0.01037109 6.6534375 0.00123047 7.56054688 0.01318359 C8.44097656 0.00158203 9.32140625 -0.01001953 10.22851562 -0.02197266 C11.07027344 -0.01810547 11.91203125 -0.01423828 12.77929688 -0.01025391 C13.93848633 -0.00517822 13.93848633 -0.00517822 15.12109375 0 C17.06054688 0.38818359 17.06054688 0.38818359 19.06054688 3.38818359 C19.31451416 6.24110413 19.31451416 6.24110413 19.31933594 9.75561523 C19.32564026 11.07030289 19.33194458 12.38499054 19.33843994 13.73951721 C19.33486053 15.17579278 19.33075867 16.61206714 19.32617188 18.04833984 C19.32751895 19.51899785 19.32945984 20.98965541 19.33197021 22.46031189 C19.33491856 25.54121138 19.33063258 28.62199486 19.32128906 31.70288086 C19.30988458 35.65646865 19.31646198 39.6097852 19.32843399 43.56336308 C19.3356519 46.59934035 19.33336517 49.63525303 19.32817841 52.67123222 C19.32684223 54.12931793 19.3284885 55.58740945 19.33313751 57.04548836 C19.33820243 59.0803733 19.32911719 61.11527875 19.31933594 63.15014648 C19.31694916 64.88863609 19.31694916 64.88863609 19.31451416 66.6622467 C19.06054688 69.38818359 19.06054688 69.38818359 17.06054688 71.38818359 C15.12109375 71.64697266 15.12109375 71.64697266 12.77929688 71.65380859 C11.93753906 71.65638672 11.09578125 71.65896484 10.22851562 71.66162109 C9.34808594 71.65388672 8.46765625 71.64615234 7.56054688 71.63818359 C6.68011719 71.64591797 5.7996875 71.65365234 4.89257812 71.66162109 C4.05082031 71.65904297 3.2090625 71.65646484 2.34179688 71.65380859 C1.56900391 71.65155273 0.79621094 71.64929688 0 71.64697266 C-1.93945312 71.38818359 -1.93945312 71.38818359 -3.93945312 69.38818359 C-4.19342041 66.6622467 -4.19342041 66.6622467 -4.19824219 63.15014648 C-4.20454651 61.83861099 -4.21085083 60.5270755 -4.21734619 59.17579651 C-4.21376615 57.73747626 -4.20966412 56.29915723 -4.20507812 54.86083984 C-4.20642493 53.39114823 -4.2083656 51.92145705 -4.21087646 50.45176697 C-4.21382793 47.36908737 -4.20953008 44.28652357 -4.20019531 41.20385742 C-4.18881068 37.25146019 -4.19535369 33.29933488 -4.20734024 29.34694767 C-4.21456685 26.31092785 -4.21226707 23.27497249 -4.20708466 20.23895073 C-4.20574985 18.78169154 -4.20738997 17.32442652 -4.21204376 15.86717415 C-4.21712072 13.82998898 -4.20801102 11.79278331 -4.19824219 9.75561523 C-4.196651 8.59582657 -4.19505981 7.4360379 -4.19342041 6.24110413 C-3.90648241 3.01780978 -3.49426221 0.69938028 0 0 Z " fill="#212122" transform="translate(336.939453125,546.61181640625)"/>
<path d="M0 0 C3.44363241 1.93042685 5.47274588 3.41109884 7.41015625 6.8984375 C7.9526011 10.85053566 8.08626475 14.25895482 6.84765625 18.0859375 C4.53515625 20.7734375 4.53515625 20.7734375 1.84765625 23.0859375 C0.82671875 24.4471875 0.82671875 24.4471875 -0.21484375 25.8359375 C-2.15234375 28.0859375 -2.15234375 28.0859375 -4.02734375 29.1484375 C-7.49561191 29.04642961 -9.51113506 27.18689895 -12.15234375 25.0859375 C-12.15234375 24.4259375 -12.15234375 23.7659375 -12.15234375 23.0859375 C-13.04953125 22.7765625 -13.04953125 22.7765625 -13.96484375 22.4609375 C-17.08976124 20.49670365 -17.85938251 18.51228478 -19.15234375 15.0859375 C-19.68311906 10.83973503 -19.44787863 8.67700726 -17.52734375 4.8359375 C-12.86052423 -0.56774826 -6.8690549 -2.91716669 0 0 Z " fill="#141414" transform="translate(350.15234375,515.9140625)"/>
<path d="M0 0 C0.67224609 0.00966797 1.34449219 0.01933594 2.03710938 0.02929688 C5.08053764 0.09880914 7.53381019 0.3446034 10.4375 1.3125 C12.71050864 5.85851728 12.12484156 12.39929597 12.4375 17.3125 C19.0375 17.6425 25.6375 17.9725 32.4375 18.3125 C32.4375 19.3025 32.4375 20.2925 32.4375 21.3125 C32.1075 20.9825 31.7775 20.6525 31.4375 20.3125 C29.87801458 20.15563751 28.31207332 20.06173361 26.74609375 19.99609375 C25.32973633 19.93325195 25.32973633 19.93325195 23.88476562 19.86914062 C22.89154297 19.82982422 21.89832031 19.79050781 20.875 19.75 C19.87791016 19.70681641 18.88082031 19.66363281 17.85351562 19.61914062 C15.3816585 19.51269702 12.9096969 19.41068072 10.4375 19.3125 C10.37691406 18.24128906 10.31632813 17.17007813 10.25390625 16.06640625 C10.16951463 14.66925609 10.08486594 13.27212143 10 11.875 C9.96068359 11.16794922 9.92136719 10.46089844 9.88085938 9.73242188 C9.96125562 6.22559581 9.96125562 6.22559581 8.4375 3.3125 C5.57482433 3.23924832 2.736781 3.22011795 -0.125 3.25 C-0.93130859 3.25451172 -1.73761719 3.25902344 -2.56835938 3.26367188 C-4.56643756 3.27549482 -6.56447783 3.29343086 -8.5625 3.3125 C-8.65543927 12.04036124 -8.72638558 20.76805047 -8.76974869 29.49629974 C-8.79056754 33.54979511 -8.81877957 37.60295034 -8.86425781 41.65625 C-8.90792098 45.5725689 -8.93167994 49.48856194 -8.94200897 53.40510559 C-8.94936386 54.89456812 -8.96372599 56.3840141 -8.98542023 57.87333679 C-9.11300978 67.00066932 -9.13754274 74.3283071 -2.640625 81.40625 C-2.03734375 81.8703125 -1.4340625 82.334375 -0.8125 82.8125 C-0.19890625 83.2971875 0.4146875 83.781875 1.046875 84.28125 C1.50578125 84.6215625 1.9646875 84.961875 2.4375 85.3125 C0.9525 85.8075 0.9525 85.8075 -0.5625 86.3125 C-7.30535469 80.14760428 -10.83379322 74.53127222 -11.5625 65.3125 C-11.73522132 60.6513823 -11.77387482 55.99212675 -11.80078125 51.328125 C-11.80485678 50.66746788 -11.8089323 50.00681076 -11.81313133 49.32613373 C-11.83384927 45.8396589 -11.84822076 42.35322194 -11.85766602 38.86669922 C-11.86879799 35.27311322 -11.90331449 31.68013491 -11.94283772 28.08676529 C-11.96896059 25.31236618 -11.97735311 22.53811449 -11.98094749 19.76360321 C-11.98816995 17.79594606 -12.01460312 15.82838968 -12.04133606 13.86090088 C-12.03841049 12.66575867 -12.03548492 11.47061646 -12.0324707 10.23925781 C-12.03833694 9.18861145 -12.04420319 8.13796509 -12.05024719 7.05548096 C-10.82524139 0.16632271 -6.14821705 -0.17428963 0 0 Z " fill="#C3C3C3" transform="translate(704.5625,528.6875)"/>
<path d="M0 0 C15.52583002 -0.67631457 29.98842481 4.52172266 41.953125 14.28125 C45.26679181 17.32299377 48.17637579 20.6646729 51 24.16015625 C50.67 24.82015625 50.34 25.48015625 50 26.16015625 C49.30777344 25.30744141 49.30777344 25.30744141 48.6015625 24.4375 C39.37489228 13.51501885 26.53407969 4.80139486 12 3.16015625 C-5.39242743 2.08267203 -20.99591346 4.26170095 -34.98046875 15.5703125 C-42.08072924 22.2200737 -46.6187828 29.56091906 -51 38.16015625 C-52 35.16015625 -52 35.16015625 -50.8125 32.48828125 C-47.10078123 26.18475886 -43.4201569 21.05022446 -38 16.16015625 C-37.278125 15.33515625 -36.55625 14.51015625 -35.8125 13.66015625 C-25.34333455 4.35423141 -13.56391955 1.08617325 0 0 Z " fill="#DCDEE9" transform="translate(184,497.83984375)"/>
<path d="M0 0 C3.31248187 -0.02888146 6.62493167 -0.04675799 9.9375 -0.0625 C10.88302734 -0.07087891 11.82855469 -0.07925781 12.80273438 -0.08789062 C14.15141602 -0.09272461 14.15141602 -0.09272461 15.52734375 -0.09765625 C16.77632446 -0.10551147 16.77632446 -0.10551147 18.05053711 -0.11352539 C20 0 20 0 21 1 C21.1224331 2.50316769 21.17776285 4.01188167 21.20532227 5.51977539 C21.22526749 6.48069595 21.24521271 7.44161652 21.26576233 8.43165588 C21.28247482 9.476436 21.29918732 10.52121613 21.31640625 11.59765625 C21.33718735 12.66165146 21.35796844 13.72564667 21.37937927 14.82188416 C21.44499254 18.2353544 21.50381423 21.64890429 21.5625 25.0625 C21.60567403 27.37045109 21.64928794 29.678394 21.69335938 31.98632812 C21.80068584 37.65746682 21.90242992 43.32868552 22 49 C22.99 49 23.98 49 25 49 C25.33 49.66 25.66 50.32 26 51 C31.86253712 51.36196378 31.86253712 51.36196378 37 49 C40.62760618 44.42127714 40.47071842 40.13177545 40.51171875 34.54296875 C40.52966995 33.64000565 40.54762115 32.73704254 40.56611633 31.80671692 C40.62013021 28.93369156 40.65408637 26.06083149 40.6875 23.1875 C40.72068096 21.23500309 40.75517134 19.28252796 40.79101562 17.33007812 C40.8758516 12.55350484 40.94270536 7.77697982 41 3 C41.33 3 41.66 3 42 3 C42.12387657 9.01392146 42.21447072 15.02709548 42.2746582 21.04199219 C42.29975583 23.08672019 42.33384164 25.13135889 42.37719727 27.17578125 C42.43805815 30.12001611 42.4662573 33.06306196 42.48828125 36.0078125 C42.51408768 36.9174173 42.5398941 37.82702209 42.56648254 38.76419067 C42.56838875 43.1072466 42.41283562 46.08230057 39.65698242 49.56201172 C36.19527951 52.73839371 33.61637666 53.19695369 29.0625 53.375 C28.20785156 53.42398438 27.35320312 53.47296875 26.47265625 53.5234375 C24 53 24 53 21.88134766 51.11083984 C19.18990944 46.6605017 19.41557323 42.81338567 19.42578125 37.703125 C19.40453438 36.21906158 19.40453438 36.21906158 19.38285828 34.70501709 C19.34099938 31.55323328 19.32571955 28.40202259 19.3125 25.25 C19.28348237 22.08396068 19.24901058 18.91806777 19.21000671 15.75213623 C19.18744605 13.78349427 19.17167147 11.81476115 19.16316223 9.8460083 C19.15612778 8.96128845 19.14909332 8.0765686 19.1418457 7.16503906 C19.13836624 6.38292053 19.13488678 5.600802 19.13130188 4.79498291 C19.19491044 2.97703179 19.19491044 2.97703179 18 2 C15.17743509 1.89992992 12.3847681 1.86124402 9.5625 1.875 C8.77294922 1.87113281 7.98339844 1.86726562 7.16992188 1.86328125 C2.95129255 1.75867531 2.95129255 1.75867531 -1 3 C-0.67 2.01 -0.34 1.02 0 0 Z " fill="#D6D6D5" transform="translate(257,547)"/>
<path d="M0 0 C8.58 0 17.16 0 26 0 C26 0.66 26 1.32 26 2 C18.08 2.33 10.16 2.66 2 3 C2 18.51 2 34.02 2 50 C1.34 50 0.68 50 0 50 C0 33.5 0 17 0 0 Z " fill="#ACACAD" transform="translate(659,566)"/>
<path d="M0 0 C0.76695694 0.0028299 1.53391388 0.00565979 2.32411194 0.00857544 C4.74879246 0.01967775 7.17308934 0.04476283 9.59765625 0.0703125 C11.25194775 0.0803552 12.9062451 0.08947878 14.56054688 0.09765625 C18.59389548 0.11958433 22.62696105 0.15404407 26.66015625 0.1953125 C27.84445813 3.74821814 27.84413483 6.99781706 27.84765625 10.6953125 C27.85990234 11.37207031 27.87214844 12.04882812 27.88476562 12.74609375 C27.89575021 16.45888294 27.77360241 18.02514326 25.66015625 21.1953125 C22.94213867 21.61181641 22.94213867 21.61181641 19.515625 21.671875 C17.66420898 21.71828125 17.66420898 21.71828125 15.77539062 21.765625 C14.47923828 21.78367187 13.18308594 21.80171875 11.84765625 21.8203125 C9.29940558 21.87145652 6.75122054 21.92601154 4.203125 21.984375 C2.50192505 22.01072021 2.50192505 22.01072021 0.76635742 22.03759766 C-2.04548915 22.18036688 -4.60295153 22.55814226 -7.33984375 23.1953125 C-6.67984375 22.2053125 -6.01984375 21.2153125 -5.33984375 20.1953125 C-2.46655273 19.77880859 -2.46655273 19.77880859 1.1640625 19.71875 C2.46150391 19.6878125 3.75894531 19.656875 5.09570312 19.625 C6.47134375 19.6060008 7.84699534 19.58778121 9.22265625 19.5703125 C11.91166277 19.522379 14.60024985 19.46508031 17.2890625 19.40625 C18.4860376 19.38868652 19.6830127 19.37112305 20.91625977 19.35302734 C23.57156509 19.50569206 23.57156509 19.50569206 24.66015625 18.1953125 C24.73335246 15.49876396 24.75258162 12.82839792 24.72265625 10.1328125 C24.71814453 9.37419922 24.71363281 8.61558594 24.70898438 7.83398438 C24.69716305 5.95439379 24.67922703 4.07484351 24.66015625 2.1953125 C20.26767445 2.14542846 15.87534801 2.10936669 11.48266602 2.08544922 C9.99207685 2.0754658 8.50150689 2.06187428 7.01098633 2.04443359 C-1.01114469 1.95299797 -8.55437491 1.96587723 -16.33984375 4.1953125 C-15.33984375 2.1953125 -15.33984375 2.1953125 -12.29858398 1.08251953 C-8.17551727 0.01046055 -4.23893717 -0.05998565 0 0 Z " fill="#E6E6E7" transform="translate(533.33984375,546.8046875)"/>
<path d="M0 0 C0.91644287 0.00523682 1.83288574 0.01047363 2.77709961 0.01586914 C4.26113281 0.02070312 4.26113281 0.02070312 5.77514648 0.02563477 C6.81606445 0.03401367 7.85698242 0.04239258 8.92944336 0.05102539 C10.49662109 0.05779297 10.49662109 0.05779297 12.09545898 0.06469727 C14.68600996 0.07652627 17.27644895 0.0930085 19.86694336 0.11352539 C19.86694336 0.77352539 19.86694336 1.43352539 19.86694336 2.11352539 C18.57401367 2.03489258 17.28108398 1.95625977 15.94897461 1.87524414 C5.26151867 1.40862087 5.26151867 1.40862087 -4.07446289 5.86352539 C-6.86408561 8.58310908 -9.34812461 11.54605782 -11.80053711 14.56958008 C-14.4743182 17.66759979 -17.78157588 19.81348958 -21.13305664 22.11352539 C-19.69692767 18.86348235 -17.91991371 16.60397934 -15.47290039 14.03930664 C-14.76198242 13.2897168 -14.05106445 12.54012695 -13.31860352 11.76782227 C-12.57674805 10.9950293 -11.83489258 10.22223633 -11.07055664 9.42602539 C-10.32483398 8.64163086 -9.57911133 7.85723633 -8.81079102 7.04907227 C-2.21508627 0.11789117 -2.21508627 0.11789117 0 0 Z " fill="#A1A1A2" transform="translate(479.133056640625,546.886474609375)"/>
<path d="M0 0 C2.3125 0.5625 2.3125 0.5625 4.3125 3.5625 C3.27351563 3.39621094 2.23453125 3.22992187 1.1640625 3.05859375 C-2.57426674 3.15799417 -2.57426674 3.15799417 -4.21582031 5.04345703 C-5.70370742 7.18196708 -7.02400474 9.36076923 -8.3125 11.625 C-9.21982352 13.13763793 -10.12866462 14.64936666 -11.0390625 16.16015625 C-11.47508789 16.90023926 -11.91111328 17.64032227 -12.36035156 18.40283203 C-13.64262325 20.48947208 -15.01356779 22.45891598 -16.4609375 24.43359375 C-18.79067852 27.38471867 -18.79067852 27.38471867 -19.6875 30.5625 C-18.97464844 30.61148438 -18.26179687 30.66046875 -17.52734375 30.7109375 C-11.98241509 31.14378523 -6.96663551 31.80278816 -1.6875 33.5625 C-5.99172506 34.87302767 -9.6245534 34.02035552 -13.9375 33.125 C-14.68257812 32.97740234 -15.42765625 32.82980469 -16.1953125 32.67773438 C-18.02757665 32.3136306 -19.85776053 31.93908591 -21.6875 31.5625 C-21.96022827 27.52612164 -21.92978319 26.85323983 -19.1875 23.5625 C-18.64222656 22.97597656 -18.09695312 22.38945313 -17.53515625 21.78515625 C-15.25012247 19.0363524 -13.44907534 16.06197939 -11.625 13 C-4.29142375 0.89820497 -4.29142375 0.89820497 0 0 Z " fill="#E2E3EA" transform="translate(187.6875,592.4375)"/>
<path d="M0 0 C3.45472049 1.1515735 3.71323937 1.69623132 5.48046875 4.7109375 C6.14272461 5.83628906 6.14272461 5.83628906 6.81835938 6.984375 C7.27017578 7.77328125 7.72199219 8.5621875 8.1875 9.375 C8.65091797 10.15617188 9.11433594 10.93734375 9.59179688 11.7421875 C13 17.60489921 13 17.60489921 13 21 C9.03981643 15.47131676 5.24914497 9.97842675 2 4 C1.21625 4.495 0.4325 4.99 -0.375 5.5 C-3 7 -3 7 -5 7 C-6.44347263 11.33041788 -6.35422191 15.75305638 -6.51757812 20.28320312 C-6.78535986 25.78535986 -6.78535986 25.78535986 -9 28 C-10.87939453 28.22705078 -10.87939453 28.22705078 -13.1328125 28.1953125 C-13.93847656 28.18886719 -14.74414062 28.18242188 -15.57421875 28.17578125 C-16.41597656 28.15902344 -17.25773437 28.14226563 -18.125 28.125 C-19.39923828 28.11146484 -19.39923828 28.11146484 -20.69921875 28.09765625 C-22.79959884 28.07405647 -24.89983444 28.03818483 -27 28 C-27.33 27.34 -27.66 26.68 -28 26 C-26.71222656 26.01160156 -25.42445313 26.02320313 -24.09765625 26.03515625 C-22.41927228 26.0445327 -20.74088674 26.05363305 -19.0625 26.0625 C-18.21236328 26.07087891 -17.36222656 26.07925781 -16.48632812 26.08789062 C-15.67744141 26.09111328 -14.86855469 26.09433594 -14.03515625 26.09765625 C-13.2862915 26.10289307 -12.53742676 26.10812988 -11.76586914 26.11352539 C-9.97332261 26.19341752 -9.97332261 26.19341752 -9 25 C-8.98099253 23.22596959 -8.96455643 21.45186558 -8.96264648 19.67773438 C-8.88604289 13.04371456 -8.60825693 8.6312541 -3.9375 3.5 C-2.65926058 2.29589397 -1.35787885 1.11352252 0 0 Z " fill="#E2E2E1" transform="translate(463,590)"/>
<path d="M0 0 C0.391875 0.53625 0.78375 1.0725 1.1875 1.625 C5.18899142 6.87397159 5.18899142 6.87397159 9.75 11.625 C11.47392769 13.52132046 11.85549402 14.40765031 12 17 C10.51627288 19.30141241 9.05544768 21.28827092 7.3125 23.375 C6.41089442 24.48546673 5.51113839 25.59743782 4.61328125 26.7109375 C3.95150879 27.52473877 3.95150879 27.52473877 3.27636719 28.35498047 C2.02208421 29.97153722 0.8959149 31.62623558 -0.21484375 33.34375 C-2 36 -2 36 -3.875 37.125 C-7.35852572 36.92008672 -9.36386356 35.15683891 -12 33 C-12 32.01 -12 31.02 -12 30 C-11.2575 30.680625 -10.515 31.36125 -9.75 32.0625 C-7.287937 34.23674937 -7.287937 34.23674937 -5.01879883 33.8371582 C-1.1372856 32.2275671 0.88274352 28.4819385 3.3125 25.1875 C3.87517578 24.46240234 4.43785156 23.73730469 5.01757812 22.99023438 C5.54416016 22.28576172 6.07074219 21.58128906 6.61328125 20.85546875 C7.09579346 20.21246826 7.57830566 19.56946777 8.07543945 18.90698242 C9.18664272 17.03687006 9.18664272 17.03687006 8.79760742 14.91137695 C7.57144185 11.97300833 5.2596713 10.2058696 3 8 C0 3.65517241 0 3.65517241 0 0 Z " fill="#E2E4EA" transform="translate(158,580)"/>
<path d="M0 0 C0.33 0 0.66 0 1 0 C1 9.49143546 -3.6248635 16.84376492 -8 25 C-8.33 25.66 -8.66 26.32 -9 27 C-13.57781594 26.50168912 -16.27659247 25.4583976 -19.9375 22.6875 C-23.84709018 19.8129753 -27.73921317 17.31564502 -32 15 C-32 14.34 -32 13.68 -32 13 C-26.77678579 14.80727184 -22.53341392 17.82324753 -17.99609375 20.8984375 C-14.32287597 23.40236096 -14.32287597 23.40236096 -10 24 C-8.86722732 21.81623234 -7.74377211 19.62842872 -6.625 17.4375 C-6.30789062 16.82841797 -5.99078125 16.21933594 -5.6640625 15.59179688 C-3.5765581 11.48202258 -2.16283373 7.48288706 -1 3 C-0.67 2.01 -0.34 1.02 0 0 Z " fill="#E8EAEC" transform="translate(244,580)"/>
<path d="M0 0 C3.31248187 -0.02888146 6.62493167 -0.04675799 9.9375 -0.0625 C10.88302734 -0.07087891 11.82855469 -0.07925781 12.80273438 -0.08789062 C14.15141602 -0.09272461 14.15141602 -0.09272461 15.52734375 -0.09765625 C16.77632446 -0.10551147 16.77632446 -0.10551147 18.05053711 -0.11352539 C20 0 20 0 21 1 C21.09268999 2.35094982 21.11747326 3.70667091 21.11352539 5.06079102 C21.11344986 5.92160782 21.11337433 6.78242462 21.11329651 7.66932678 C21.10813522 8.60473801 21.10297394 9.54014923 21.09765625 10.50390625 C21.0962413 11.45692123 21.09482635 12.40993622 21.09336853 13.39183044 C21.08775152 16.44875165 21.07519616 19.50560077 21.0625 22.5625 C21.05748719 24.62955624 21.05292391 26.69661362 21.04882812 28.76367188 C21.03777656 33.84247588 21.02050055 38.9212257 21 44 C20.67 44 20.34 44 20 44 C19.97494385 42.7632251 19.9498877 41.5264502 19.92407227 40.25219727 C19.83017747 35.68063287 19.72991371 31.10922682 19.62768555 26.5378418 C19.58426856 24.55610854 19.54259863 22.57433622 19.50268555 20.5925293 C19.44514617 17.7503683 19.38140555 14.90840517 19.31640625 12.06640625 C19.29969376 11.17474258 19.28298126 10.28307892 19.26576233 9.36439514 C19.563413 5.36051605 19.563413 5.36051605 18 2 C15.17743509 1.89992992 12.3847681 1.86124402 9.5625 1.875 C8.77294922 1.87113281 7.98339844 1.86726562 7.16992188 1.86328125 C2.95129255 1.75867531 2.95129255 1.75867531 -1 3 C-0.67 2.01 -0.34 1.02 0 0 Z " fill="#FAF9F9" transform="translate(257,547)"/>
<path d="M0 0 C0.99 0.495 0.99 0.495 2 1 C2.14283563 8.06582816 2.28520451 15.1316656 2.42724609 22.19750977 C2.47564065 24.60213434 2.52414277 27.00675675 2.57275391 29.41137695 C2.64253444 32.86408944 2.71193043 36.31680948 2.78125 39.76953125 C2.80312378 40.84773636 2.82499756 41.92594147 2.84753418 43.03681946 C2.86755493 44.03763046 2.88757568 45.03844147 2.90820312 46.06958008 C2.92596802 46.95116287 2.94373291 47.83274567 2.96203613 48.74104309 C2.99149329 50.49382689 3 52.24696869 3 54 C2.01 54.495 2.01 54.495 1 55 C0.67 36.85 0.34 18.7 0 0 Z " fill="#E1E0E1" transform="translate(454,517)"/>
<path d="M0 0 C3.42972566 1.94558983 5.46257797 3.42170284 7.3984375 6.90625 C7.96315015 11.020585 7.71878349 14.01907618 6.8359375 18.09375 C5.8459375 18.75375 4.8559375 19.41375 3.8359375 20.09375 C4.0009375 19.59875 4.1659375 19.10375 4.3359375 18.59375 C5.37459529 13.40046106 5.81606664 9.62928566 2.9609375 5.15625 C-0.48803353 1.80871929 -2.57820531 1.9811345 -7.2890625 2.03125 C-8.38476562 2.04027344 -9.48046875 2.04929687 -10.609375 2.05859375 C-11.87394531 2.07599609 -11.87394531 2.07599609 -13.1640625 2.09375 C-10.86653076 -2.50131348 -4.13674583 -1.73235566 0 0 Z " fill="#DBDBDA" transform="translate(350.1640625,515.90625)"/>
<path d="M0 0 C0.74362793 0.01047363 1.48725586 0.02094727 2.25341797 0.03173828 C3.46191406 0.04140625 3.46191406 0.04140625 4.69482422 0.05126953 C5.95746094 0.07640625 5.95746094 0.07640625 7.24560547 0.10205078 C8.51984375 0.11558594 8.51984375 0.11558594 9.81982422 0.12939453 C11.9202043 0.15299431 14.02043991 0.18886595 16.12060547 0.22705078 C16.12060547 3.19705078 16.12060547 6.16705078 16.12060547 9.22705078 C14.14060547 9.22705078 12.16060547 9.22705078 10.12060547 9.22705078 C10.12060547 8.89705078 10.12060547 8.56705078 10.12060547 8.22705078 C11.77060547 8.22705078 13.42060547 8.22705078 15.12060547 8.22705078 C14.79060547 5.91705078 14.46060547 3.60705078 14.12060547 1.22705078 C11.82835112 1.34076575 9.53678159 1.46836042 7.24560547 1.60205078 C5.33134766 1.70646484 5.33134766 1.70646484 3.37841797 1.81298828 C0.03998848 1.89946184 0.03998848 1.89946184 -1.87939453 4.22705078 C-1.87939453 5.21705078 -1.87939453 6.20705078 -1.87939453 7.22705078 C-0.55939453 7.88705078 0.76060547 8.54705078 2.12060547 9.22705078 C-0.25439453 9.35205078 -0.25439453 9.35205078 -2.87939453 9.22705078 C-3.53939453 8.56705078 -4.19939453 7.90705078 -4.87939453 7.22705078 C-4.52180685 3.65117394 -4.11527292 0.49716859 0 0 Z " fill="#E7E7E7" transform="translate(589.87939453125,590.77294921875)"/>
<path d="M0 0 C0.33 0.66 0.66 1.32 1 2 C0.59007812 2.60328125 0.18015625 3.2065625 -0.2421875 3.828125 C-0.78101563 4.62734375 -1.31984375 5.4265625 -1.875 6.25 C-2.40867188 7.03890625 -2.94234375 7.8278125 -3.4921875 8.640625 C-5.02315009 10.92533545 -5.02315009 10.92533545 -6.0546875 13.23828125 C-7 15 -7 15 -9.25 15.9375 C-12.90602998 16.02059159 -14.9213766 14.91558789 -18 13 C-18.66 12.01 -19.32 11.02 -20 10 C-19.29875 10.309375 -18.5975 10.61875 -17.875 10.9375 C-14.90806121 12.03397738 -12.11830091 12.52059363 -9 13 C-8.43410156 12.14535156 -7.86820313 11.29070313 -7.28515625 10.41015625 C-6.54433159 9.2942305 -5.80344286 8.17834728 -5.0625 7.0625 C-4.68931641 6.49853516 -4.31613281 5.93457031 -3.93164062 5.35351562 C-1.11328125 1.11328125 -1.11328125 1.11328125 0 0 Z " fill="#E4E6EA" transform="translate(254,645)"/>
<path d="M0 0 C8.56371663 2.67616145 14.50472962 9.23394834 20 16 C19.67 16.66 19.34 17.32 19 18 C18.55011719 17.443125 18.10023438 16.88625 17.63671875 16.3125 C12.98090429 10.78896861 8.08296711 6.61116226 2.125 2.53125 C1.42375 2.0259375 0.7225 1.520625 0 1 C0 0.67 0 0.34 0 0 Z " fill="#E5E6EC" transform="translate(215,506)"/>
<path d="M0 0 C0.66 0.33 1.32 0.66 2 1 C-1.30835735 5.60806916 -1.30835735 5.60806916 -3.875 7.0625 C-7.28272352 6.96227284 -9.34625215 4.99031089 -12 3 C-11.67 2.34 -11.34 1.68 -11 1 C-10.06027344 1.01740234 -10.06027344 1.01740234 -9.1015625 1.03515625 C-7.87566406 1.04869141 -7.87566406 1.04869141 -6.625 1.0625 C-5.40683594 1.07990234 -5.40683594 1.07990234 -4.1640625 1.09765625 C-1.95062858 1.14466334 -1.95062858 1.14466334 0 0 Z " fill="#DFDFDE" transform="translate(350,538)"/>
<path d="M0 0 C4.48533642 1.56901502 8.18628751 3.90459577 12.125 6.5 C12.74503906 6.90347656 13.36507812 7.30695312 14.00390625 7.72265625 C16.67972994 9.46625749 19.34262643 11.22841762 22 13 C16.53488175 12.57136327 14.10358282 11.53098986 10 8 C7.36218759 6.40835702 4.69566376 4.87960031 2.01171875 3.3671875 C1.34785156 2.91601562 0.68398437 2.46484375 0 2 C0 1.34 0 0.68 0 0 Z " fill="#DDE1E9" transform="translate(212,593)"/>
<path d="M0 0 C0.9964415 1.95807282 1.96103698 3.90877853 2.82421875 5.9296875 C5.21381898 11.31439752 8.29240621 14.50897539 13 18 C12.01 18.33 11.02 18.66 10 19 C5.01743699 14.44451382 0.3076358 9.44552093 -0.3125 2.5 C-0.209375 1.675 -0.10625 0.85 0 0 Z " fill="#DBDCDA" transform="translate(694,596)"/>
<path d="M0 0 C3.31248187 -0.02888146 6.62493167 -0.04675799 9.9375 -0.0625 C10.88302734 -0.07087891 11.82855469 -0.07925781 12.80273438 -0.08789062 C14.15141602 -0.09272461 14.15141602 -0.09272461 15.52734375 -0.09765625 C16.77632446 -0.10551147 16.77632446 -0.10551147 18.05053711 -0.11352539 C20 0 20 0 21 1 C21.04092937 3.33297433 21.04241723 5.66705225 21 8 C20.67 8 20.34 8 20 8 C19.34 6.02 18.68 4.04 18 2 C15.20826945 1.97309896 12.41679652 1.95320947 9.625 1.9375 C8.8309375 1.92912109 8.036875 1.92074219 7.21875 1.91210938 C2.97607778 1.76959849 2.97607778 1.76959849 -1 3 C-0.67 2.01 -0.34 1.02 0 0 Z " fill="#F2F2F2" transform="translate(257,547)"/>
<path d="M0 0 C3.92297846 0.56340648 6.49080356 1.70090379 9.75 3.9375 C10.52859375 4.46214844 11.3071875 4.98679687 12.109375 5.52734375 C14 7 14 7 15 9 C11.32305352 7.62859834 8.04681411 5.96304199 4.6875 3.9375 C3.80449219 3.41027344 2.92148438 2.88304687 2.01171875 2.33984375 C1.34785156 1.89769531 0.68398437 1.45554687 0 1 C0 0.67 0 0.34 0 0 Z " fill="#E0E2EA" transform="translate(192,596)"/>
<path d="M0 0 C1 3 1 3 0.22265625 4.90234375 C-0.16019531 5.57394531 -0.54304687 6.24554687 -0.9375 6.9375 C-2.75807592 10.14047933 -3 11.07836033 -3 15 C-3.66 15 -4.32 15 -5 15 C-5.78287497 8.89357521 -3.10825151 4.99540421 0 0 Z " fill="#DFE1E8" transform="translate(215,578)"/>
<path d="M0 0 C0.66 0.33 1.32 0.66 2 1 C0.89718873 2.27200971 -0.20730769 3.54255853 -1.3125 4.8125 C-2.23482422 5.87404297 -2.23482422 5.87404297 -3.17578125 6.95703125 C-4.73334335 8.70136739 -6.32658875 10.36778041 -8 12 C-6.71999898 6.99635967 -4.82671924 4.43423522 -1 1 C-0.67 0.67 -0.34 0.34 0 0 Z " fill="#D4D5D4" transform="translate(376,553)"/>
<path d="M0 0 C0.33 0 0.66 0 1 0 C0.91253716 1.43861294 0.80434652 2.87597508 0.6875 4.3125 C0.62949219 5.11300781 0.57148438 5.91351562 0.51171875 6.73828125 C-0.08206694 9.36272334 -0.95780294 10.30820672 -3 12 C-2.14285714 3.42857143 -2.14285714 3.42857143 0 0 Z " fill="#BCC4DF" transform="translate(244,580)"/>
<path d="M0 0 C1.06546953 3.1964086 1.07427838 5.65747276 1 9 C-0.5625 7.8125 -0.5625 7.8125 -2 6 C-1.57894737 1.57894737 -1.57894737 1.57894737 0 0 Z " fill="#E0DFE0" transform="translate(481,571)"/>
<path d="M0 0 C3.3 1.65 6.6 3.3 10 5 C7 6 7 6 3.875 4.75 C1 3 1 3 0 0 Z " fill="#E2E2E1" transform="translate(375,610)"/>
<path d="" fill="#EDEDED" transform="translate(0,0)"/>
</svg>